<svg width="148" height="44" viewBox="0 0 148 44" fill="none" xmlns="http://www.w3.org/2000/svg">
<path d="M74.954 23.9248C74.0307 23.9291 73.1287 24.207 72.3628 24.7233C71.5969 25.2396 71.0011 25.9713 70.6506 26.8259C70.3001 27.6805 70.2108 28.6198 70.3936 29.5252C70.5765 30.4306 71.0234 31.2616 71.6781 31.9132C72.3328 32.5648 73.1658 33.0078 74.0718 33.1865C74.9782 33.3651 75.9176 33.2713 76.7704 32.9168C77.6233 32.5623 78.3522 31.9631 78.8648 31.1947C79.3774 30.4264 79.651 29.5235 79.651 28.5998C79.6598 27.9815 79.5446 27.3678 79.3114 26.795C79.0782 26.2224 78.7321 25.7024 78.2943 25.2662C77.8558 24.83 77.3344 24.4864 76.7602 24.256C76.1867 24.0255 75.5722 23.9129 74.954 23.9248ZM74.954 31.4378C74.3864 31.4775 73.8195 31.3454 73.3271 31.0587C72.8351 30.772 72.4407 30.3439 72.1953 29.83C71.9498 29.3162 71.8646 28.7404 71.9507 28.1775C72.0368 27.6146 72.2903 27.0906 72.6781 26.6737C73.066 26.2568 73.5702 25.9662 74.1253 25.8397C74.6804 25.7131 75.2612 25.7565 75.7914 25.9642C76.3216 26.172 76.777 26.5344 77.0982 27.0044C77.4202 27.4745 77.5925 28.0303 77.594 28.5998C77.6116 28.9606 77.5573 29.3213 77.4334 29.6606C77.3094 30 77.1188 30.3111 76.8724 30.5756C76.6267 30.84 76.3297 31.0526 76.0004 31.2007C75.6712 31.3488 75.3155 31.4294 74.954 31.4378ZM64.7131 23.9248C63.7889 23.927 62.8861 24.203 62.1188 24.718C61.3514 25.233 60.7539 25.9639 60.4018 26.8184C60.0496 27.6728 59.9586 28.6124 60.1403 29.5186C60.3218 30.4247 60.768 31.2566 61.4222 31.9094C62.0765 32.562 62.9095 33.0062 63.816 33.1857C64.7226 33.3652 65.662 33.272 66.5156 32.9179C67.3692 32.5637 68.0988 31.9645 68.6119 31.1959C69.1251 30.4273 69.399 29.5239 69.399 28.5998C69.408 27.9815 69.2925 27.3678 69.0593 26.795C68.8262 26.2224 68.4802 25.7024 68.0419 25.2662C67.6037 24.83 67.0821 24.4864 66.5084 24.256C65.9346 24.0255 65.3203 23.9129 64.702 23.9248H64.7131ZM64.7131 31.4378C64.1447 31.4797 63.5769 31.3496 63.0836 31.0644C62.5902 30.7791 62.1942 30.3519 61.947 29.8385C61.6998 29.325 61.6129 28.749 61.6976 28.1854C61.7824 27.6219 62.0348 27.0969 62.4221 26.6788C62.8094 26.2607 63.3135 25.9689 63.869 25.8414C64.4245 25.7139 65.0054 25.7566 65.5363 25.9638C66.0671 26.1711 66.5233 26.5334 66.8453 27.0035C67.1674 27.4737 67.3405 28.0299 67.3421 28.5998C67.3598 28.9606 67.3051 29.3213 67.1811 29.6606C67.0573 30 66.8667 30.3111 66.6206 30.5756C66.3745 30.84 66.0781 31.0526 65.7486 31.2007C65.419 31.3488 65.0632 31.4294 64.702 31.4378H64.7131ZM52.5141 25.3658V27.3458H57.2661C57.1915 28.2784 56.8039 29.1584 56.1661 29.8428C55.6907 30.327 55.1191 30.7064 54.4882 30.9565C53.8573 31.2066 53.1811 31.3218 52.503 31.2948C51.1027 31.2948 49.7597 30.7385 48.7696 29.7483C47.7793 28.7581 47.223 27.4151 47.223 26.0148C47.223 24.6144 47.7793 23.2714 48.7696 22.2812C49.7597 21.2911 51.1027 20.7348 52.503 20.7348C53.8426 20.7129 55.1362 21.2232 56.1 22.1538L57.497 20.7568C56.8464 20.0979 56.0701 19.5763 55.2142 19.223C54.3582 18.8697 53.44 18.6917 52.5141 18.6998C51.5361 18.6617 50.5606 18.8214 49.646 19.1694C48.7313 19.5174 47.8962 20.0465 47.1909 20.7249C46.4856 21.4033 45.9244 22.2171 45.5411 23.1176C45.1579 24.0181 44.9603 24.9866 44.9603 25.9653C44.9603 26.9439 45.1579 27.9125 45.5411 28.813C45.9244 29.7134 46.4856 30.5273 47.1909 31.2057C47.8962 31.8841 48.7313 32.4131 49.646 32.7611C50.5606 33.1091 51.5361 33.2688 52.5141 33.2308C53.4556 33.2733 54.3953 33.1137 55.27 32.7627C56.1448 32.4116 56.9341 31.8774 57.585 31.1958C58.7375 29.9296 59.3528 28.2651 59.301 26.5538C59.3046 26.1369 59.2678 25.7206 59.1911 25.3108L52.5141 25.3658ZM102.355 26.9058C102.068 26.0618 101.531 25.3249 100.816 24.7925C100.101 24.2602 99.242 23.9576 98.351 23.9248C97.7496 23.9236 97.1542 24.0458 96.6012 24.284C96.0483 24.5221 95.5511 24.871 95.1382 25.3092C94.7261 25.7473 94.4078 26.2654 94.204 26.8314C93.9994 27.3974 93.9136 27.9992 93.951 28.5998C93.9378 29.2146 94.0485 29.8258 94.2766 30.3968C94.5046 30.9679 94.8456 31.4871 95.279 31.9235C95.7124 32.3599 96.2287 32.7045 96.7985 32.9366C97.3676 33.1687 97.9784 33.2838 98.593 33.2748C99.3622 33.2789 100.121 33.0922 100.8 32.7313C101.48 32.3704 102.059 31.8465 102.487 31.2068L100.892 30.1068C100.654 30.5037 100.317 30.8319 99.9137 31.0595C99.5111 31.2869 99.0557 31.4059 98.593 31.4048C98.1163 31.423 97.6455 31.2973 97.2414 31.0443C96.8374 30.7912 96.5191 30.4223 96.327 29.9858L102.586 27.4008L102.355 26.9058ZM95.975 28.4678C95.953 28.1275 95.9984 27.7863 96.1099 27.464C96.2214 27.1416 96.3952 26.8448 96.6232 26.5907C96.8506 26.3366 97.1263 26.1306 97.4343 25.9844C97.7423 25.8383 98.0767 25.7551 98.417 25.7398C98.7719 25.7164 99.1261 25.7978 99.4348 25.9738C99.7436 26.1498 99.9944 26.4126 100.155 26.7298L95.975 28.4678ZM90.893 32.9998H92.95V19.2498H90.893V32.9998ZM87.527 24.9698H87.45C87.1398 24.6231 86.7606 24.346 86.3353 24.1564C85.9107 23.9669 85.4509 23.8692 84.986 23.8698C83.784 23.9281 82.6503 24.4466 81.8202 25.318C80.99 26.1894 80.5273 27.3467 80.5273 28.5503C80.5273 29.7538 80.99 30.9112 81.8202 31.7825C82.6503 32.6539 83.784 33.1725 84.986 33.2308C85.4524 33.2386 85.9144 33.1442 86.3404 32.9542C86.7658 32.7641 87.1449 32.483 87.45 32.1308H87.516V32.8018C87.516 34.5948 86.559 35.5518 85.019 35.5518C84.5064 35.5397 84.0084 35.3754 83.589 35.0796C83.1702 34.7838 82.8483 34.37 82.665 33.8908L80.872 34.6388C81.2093 35.4597 81.785 36.1612 82.5234 36.6532C83.2626 37.1451 84.1316 37.4051 85.019 37.3998C87.428 37.3998 89.419 35.9808 89.419 32.5268V24.1998H87.527V24.9698ZM85.173 31.4378C84.4638 31.3752 83.8031 31.0492 83.322 30.5238C82.841 29.9985 82.574 29.3121 82.574 28.5998C82.574 27.8875 82.841 27.201 83.322 26.6757C83.8031 26.1504 84.4638 25.8243 85.173 25.7618C85.525 25.7798 85.8696 25.8681 86.1864 26.0214C86.504 26.1747 86.787 26.39 87.0195 26.6544C87.2527 26.9189 87.4302 27.2273 87.5416 27.5614C87.6531 27.8955 87.6971 28.2485 87.67 28.5998C87.7 28.9525 87.6582 29.3077 87.5468 29.6438C87.436 29.98 87.2578 30.29 87.0232 30.5554C86.7885 30.8206 86.5032 31.0356 86.1828 31.1873C85.863 31.3389 85.5162 31.4241 85.162 31.4378H85.173ZM111.991 19.2498H107.074V32.9998H109.131V27.7858H112.002C112.589 27.8279 113.177 27.7487 113.731 27.5534C114.286 27.3579 114.794 27.0505 115.224 26.65C115.654 26.2496 115.997 25.7648 116.232 25.2259C116.466 24.687 116.587 24.1055 116.587 23.5178C116.587 22.93 116.466 22.3485 116.232 21.8096C115.997 21.2708 115.654 20.786 115.224 20.3855C114.794 19.9851 114.286 19.6776 113.731 19.4822C113.177 19.2867 112.589 19.2077 112.002 19.2498H111.991ZM111.991 25.8498H109.12V21.1638H112.035C112.66 21.1638 113.261 21.4124 113.703 21.8549C114.146 22.2974 114.395 22.8975 114.395 23.5233C114.395 24.149 114.146 24.7492 113.703 25.1917C113.261 25.6342 112.66 25.8828 112.035 25.8828L111.991 25.8498ZM124.674 23.8698C123.925 23.825 123.179 24 122.529 24.3733C121.878 24.7466 121.35 25.3018 121.011 25.9708L122.837 26.7298C123.017 26.3979 123.289 26.1257 123.622 25.946C123.954 25.7663 124.331 25.687 124.707 25.7178C124.968 25.6873 125.233 25.709 125.485 25.7819C125.738 25.8548 125.973 25.9772 126.178 26.1421C126.383 26.3069 126.553 26.5109 126.678 26.7421C126.804 26.9733 126.881 27.2271 126.907 27.4888V27.6318C126.246 27.282 125.51 27.1006 124.762 27.1038C122.793 27.1038 120.802 28.2038 120.802 30.1948C120.822 30.6193 120.926 31.0356 121.109 31.4191C121.292 31.8026 121.55 32.1455 121.868 32.4276C122.186 32.7096 122.558 32.925 122.96 33.0611C123.363 33.1971 123.788 33.2511 124.212 33.2198C124.73 33.257 125.249 33.1541 125.713 32.9217C126.177 32.6895 126.571 32.3365 126.852 31.8998H126.918V32.9998H128.898V27.7088C128.898 25.2998 127.072 23.9028 124.729 23.9028L124.674 23.8698ZM124.421 31.4048C123.75 31.4048 122.815 31.0638 122.815 30.2388C122.815 29.1388 123.981 28.7758 125.015 28.7758C125.668 28.7596 126.314 28.9192 126.885 29.2378C126.816 29.8333 126.534 30.3839 126.092 30.7882C125.649 31.1925 125.075 31.4232 124.476 31.4378L124.421 31.4048ZM136.114 24.1998L133.76 30.1618H133.694L131.252 24.1998H129.052L132.715 32.5378L130.625 37.1688H132.77L138.402 24.1998H136.114ZM117.623 32.9998H119.68V19.2498H117.623V32.9998Z" fill="white"/>
<path d="M52.0934 11.3326C52.1121 11.736 52.0486 12.1392 51.9068 12.5173C51.765 12.8955 51.5478 13.2409 51.2684 13.5326C50.9565 13.8566 50.5797 14.1113 50.1627 14.28C49.7457 14.4487 49.2979 14.5276 48.8484 14.5116C48.1664 14.5063 47.5011 14.2998 46.936 13.918C46.3708 13.5362 45.9309 12.9961 45.6713 12.3654C45.4117 11.7347 45.3441 11.0414 45.4768 10.3724C45.6095 9.70339 45.9367 9.08849 46.4174 8.60463C46.7334 8.28204 47.1121 8.02779 47.5303 7.85751C47.9484 7.68723 48.397 7.60451 48.8484 7.61463C49.3134 7.61302 49.7739 7.70667 50.2014 7.88963C50.5994 8.05016 50.9538 8.30272 51.2354 8.62663L50.6524 9.20963C50.4329 8.94849 50.1556 8.74199 49.8425 8.60639C49.5294 8.47087 49.1891 8.41001 48.8484 8.42863C48.5048 8.42695 48.1644 8.49463 47.8477 8.62766C47.5309 8.76076 47.2442 8.95641 47.0048 9.20296C46.7655 9.44943 46.5784 9.74181 46.4548 10.0624C46.3312 10.383 46.2735 10.7252 46.2854 11.0686C46.2782 11.5814 46.423 12.0847 46.7016 12.5153C46.9801 12.9458 47.3799 13.2843 47.8507 13.4878C48.3213 13.6913 48.8417 13.7509 49.3462 13.6591C49.8507 13.5672 50.3167 13.328 50.6854 12.9716C51.0239 12.6048 51.2191 12.1284 51.2354 11.6296H48.8484V10.8376H52.0494C52.0788 11.0009 52.0934 11.1666 52.0934 11.3326ZM57.1314 8.58263H54.1614V10.6726H56.8674V11.4646H54.1614V13.5546H57.1314V14.3686H53.2814V7.76863H57.1314V8.58263ZM60.7394 14.3686H59.8924V8.58263H58.0444V7.76863H62.6314V8.58263H60.7394V14.3686ZM65.8654 14.3686V7.76863H66.7124V14.3686H65.8654ZM70.4744 14.3686H69.6274V8.58263H67.7794V7.76863H72.3114V8.58263H70.4744V14.3686ZM80.9021 13.5106C80.2597 14.1501 79.3892 14.5091 78.4821 14.5091C77.5757 14.5091 76.7052 14.1501 76.0621 13.5106C75.4373 12.8489 75.0889 11.9733 75.0889 11.0631C75.0889 10.1529 75.4373 9.27725 76.0621 8.61563C76.3796 8.29634 76.7565 8.0429 77.1716 7.86998C77.5874 7.69706 78.0325 7.60803 78.4821 7.60803C78.9323 7.60803 79.3775 7.69706 79.7933 7.86998C80.2083 8.0429 80.5853 8.29634 80.9021 8.61563C81.5298 9.276 81.8796 10.1521 81.8796 11.0631C81.8796 11.9741 81.5298 12.8503 80.9021 13.5106ZM76.6891 12.9606C77.1657 13.4348 77.8103 13.7011 78.4821 13.7011C79.1545 13.7011 79.7991 13.4348 80.2751 12.9606C80.7451 12.4425 81.0055 11.7681 81.0055 11.0686C81.0055 10.3691 80.7451 9.69466 80.2751 9.17663C79.7991 8.70239 79.1545 8.43611 78.4821 8.43611C77.8103 8.43611 77.1657 8.70239 76.6891 9.17663C76.2197 9.69466 75.9594 10.3691 75.9594 11.0686C75.9594 11.7681 76.2197 12.4425 76.6891 12.9606ZM83.0691 14.3686V7.76863H84.1031L87.3151 12.9056V7.76863H88.1621V14.3686H87.2821L83.9271 8.98963V14.3686H83.0691Z" fill="white"/>
<path fill-rule="evenodd" clip-rule="evenodd" d="M78.4821 7.71805C78.0472 7.71805 77.616 7.80421 77.2142 7.97156C76.8123 8.13876 76.4478 8.38362 76.1413 8.69213C75.5363 9.33321 75.199 10.1815 75.199 11.0631C75.199 11.9446 75.5363 12.7928 76.1413 13.4339C76.7639 14.0521 77.605 14.3991 78.4821 14.3991C79.3599 14.3991 80.2018 14.052 80.8236 13.4337C81.4308 12.7939 81.7696 11.9453 81.7696 11.0631C81.7696 10.1808 81.4308 9.33211 80.8236 8.69228C80.5171 8.38369 80.1526 8.13876 79.7508 7.97156C79.3489 7.80421 78.9177 7.71805 78.4821 7.71805ZM77.1298 7.76843C77.5581 7.58993 78.0179 7.49805 78.4821 7.49805C78.947 7.49805 79.4068 7.58993 79.8351 7.76843C80.2641 7.94699 80.6535 8.20857 80.9806 8.53813L80.982 8.53982C81.6288 9.22065 81.9896 10.124 81.9896 11.0631C81.9896 12.0023 81.6288 12.9056 80.982 13.5864L80.9798 13.5887C80.3162 14.2486 79.4186 14.6191 78.4821 14.6191C77.5464 14.6191 76.6488 14.2486 75.9851 13.5886L75.9822 13.5862C75.3383 12.9042 74.979 12.0014 74.979 11.0631C74.979 10.1248 75.3383 9.22211 75.9822 8.54011L75.9844 8.53806C76.3114 8.2085 76.7008 7.94699 77.1298 7.76843ZM48.846 7.72457C48.4096 7.71489 47.9759 7.79475 47.5717 7.95939C47.1675 8.12402 46.8014 8.36983 46.496 8.68157L46.4955 8.68216C46.03 9.15061 45.7132 9.74608 45.5847 10.3938C45.4562 11.0416 45.5217 11.7129 45.773 12.3235C46.0243 12.9342 46.4503 13.4572 46.9975 13.8269C47.5447 14.1965 48.1889 14.3964 48.8493 14.4016H48.8523C49.2864 14.4171 49.7189 14.3409 50.1215 14.1781C50.5241 14.0152 50.8879 13.7693 51.189 13.4565C51.4581 13.1755 51.6672 12.8429 51.8038 12.4787C51.9404 12.1145 52.0016 11.7263 51.9835 11.3377L52.0935 11.3326L51.9835 11.3326C51.9835 11.2037 51.9742 11.0751 51.9558 10.9476H48.9585V11.5196H51.3491L51.3454 11.6332C51.3282 12.1585 51.1227 12.66 50.7663 13.0462L50.762 13.0508C50.3777 13.4224 49.8918 13.6715 49.366 13.7673C48.84 13.8631 48.2976 13.801 47.807 13.5887C47.3164 13.3766 46.8996 13.0239 46.6092 12.5751C46.3193 12.127 46.1684 11.6033 46.1754 11.0697C46.1634 10.7125 46.2236 10.3564 46.3522 10.0228C46.4811 9.68844 46.6763 9.38352 46.926 9.12634C47.1756 8.86916 47.4746 8.66507 47.8051 8.52625C48.1345 8.38795 48.4884 8.31733 48.8457 8.31857C49.2023 8.29965 49.5585 8.3636 49.8862 8.5055C50.1783 8.63193 50.4407 8.81717 50.6572 9.04927L51.0837 8.62283C50.8255 8.34835 50.5105 8.13289 50.1603 7.99165L50.1581 7.99077C49.7444 7.81367 49.2988 7.72311 48.8488 7.72465L48.846 7.72457ZM52.2035 11.3301C52.2225 11.7476 52.1566 12.1646 52.0098 12.5559C51.8628 12.9481 51.6375 13.3063 51.3479 13.6087C51.0252 13.9439 50.6353 14.2075 50.204 14.382C49.7732 14.5563 49.3105 14.6379 48.846 14.6216C48.1429 14.6158 47.4571 14.4027 46.8744 14.0092C46.2913 13.6152 45.8374 13.058 45.5696 12.4073C45.3018 11.7565 45.232 11.0412 45.3689 10.351C45.5058 9.66087 45.8433 9.02653 46.3391 8.52735C46.6655 8.1942 47.0568 7.93152 47.4888 7.75567C47.9204 7.57989 48.3835 7.49445 48.8495 7.50465C49.3286 7.50318 49.803 7.59969 50.2436 7.78801C50.6574 7.95513 51.0257 8.21774 51.3185 8.55441L51.3857 8.63185L50.6454 9.37223L50.5682 9.28041C50.3596 9.03233 50.0962 8.83616 49.7988 8.70739C49.5013 8.57861 49.1781 8.52075 48.8544 8.53843L48.8479 8.53879C48.5191 8.53718 48.1934 8.60179 47.8903 8.72909C47.5871 8.85647 47.3128 9.04369 47.0838 9.27961C46.8547 9.51545 46.6757 9.79521 46.5575 10.102C46.4392 10.4087 46.384 10.7362 46.3954 11.0648L46.3955 11.0702C46.3886 11.5612 46.5272 12.0432 46.794 12.4555C47.0607 12.8679 47.4436 13.1919 47.8943 13.3869C48.345 13.5818 48.8434 13.6388 49.3265 13.5509C49.8086 13.4631 50.254 13.2348 50.6067 12.8947C50.9003 12.5756 51.0795 12.1694 51.1185 11.7396H48.7385V10.7276H52.1414L52.1577 10.8181C52.1881 10.9871 52.2033 11.1584 52.2035 11.3301ZM53.1715 7.65865H57.2415V8.69265H54.2715V10.5626H56.9775V11.5746H54.2715V13.4446H57.2415V14.4786H53.1715V7.65865ZM53.3915 7.87865V14.2586H57.0215V13.6646H54.0515V11.3546H56.7575V10.7826H54.0515V8.47265H57.0215V7.87865H53.3915ZM57.9345 7.65865H62.7415V8.69265H60.8495V14.4786H59.7825V8.69265H57.9345V7.65865ZM58.1545 7.87865V8.47265H60.0025V14.2586H60.6295V8.47265H62.5215V7.87865H58.1545ZM65.7555 7.65865H66.8225V14.4786H65.7555V7.65865ZM65.9755 7.87865V14.2586H66.6025V7.87865H65.9755ZM67.6695 7.65865H72.4215V8.69265H70.5845V14.4786H69.5175V8.69265H67.6695V7.65865ZM67.8895 7.87865V8.47265H69.7375V14.2586H70.3645V8.47265H72.2015V7.87865H67.8895ZM82.9591 7.65865H84.1647L87.2051 12.5222V7.65865H88.2721V14.4786H87.2212L84.0371 9.37384V14.4786H82.9591V7.65865ZM83.1791 7.87865V14.2586H83.8171V8.60538L87.3437 14.2586H88.0521V7.87865H87.4251V13.289L84.0422 7.87865H83.1791ZM76.6121 9.09869C77.1086 8.60391 77.781 8.32613 78.4821 8.32613C79.1839 8.32613 79.8564 8.60391 80.3528 9.09869L80.3572 9.10265C80.8456 9.64092 81.1155 10.3418 81.1155 11.0686C81.1155 11.7955 80.8449 12.4962 80.3572 13.0345L80.3528 13.0387C79.8564 13.5335 79.1839 13.8111 78.4821 13.8111C77.781 13.8111 77.1086 13.5333 76.6121 13.0385L76.6891 12.9606L76.6077 13.0345C76.1193 12.4962 75.8494 11.7955 75.8494 11.0686C75.8494 10.3418 76.1193 9.64099 76.6077 9.10273L76.6121 9.09869ZM76.769 12.8847C77.2244 13.3371 77.8404 13.5911 78.4821 13.5911C79.1245 13.5911 79.7405 13.3371 80.1959 12.8847C80.6462 12.3871 80.8955 11.7399 80.8955 11.0686C80.8955 10.3974 80.6462 9.75019 80.1959 9.25262C79.7405 8.80008 79.1245 8.54613 78.4821 8.54613C77.8404 8.54613 77.2244 8.80015 76.769 9.25262C76.3188 9.75019 76.0694 10.3974 76.0694 11.0686C76.0694 11.7399 76.3188 12.3871 76.769 12.8847Z" fill="white"/>
<path d="M11.5451 35.9685L25.0208 21.9916L11.5564 8.03983C11.1968 8.25704 10.9742 8.75996 10.9742 9.41827V34.6034C10.9791 35.2617 11.1936 35.7279 11.5451 35.9685Z" fill="white"/>
<path d="M25.5032 21.6054L29.5172 17.4416L13.171 8.14485C12.8958 7.97897 12.5831 7.89134 12.2646 7.8909L25.5016 21.6037L25.5032 21.6054Z" fill="white"/>
<path d="M25.5035 22.3788L12.2246 36.1519C12.5579 36.1577 12.8862 36.0674 13.1729 35.8912L29.5514 26.5694L25.5035 22.3788Z" fill="white"/>
<path d="M35.439 20.8151L29.9995 17.7156L25.8759 21.9931L30.0301 26.2973L35.4374 23.2062C36.5873 22.5495 36.5873 21.4685 35.439 20.8151Z" fill="white"/>
</svg>
