<svg width="92" height="28" viewBox="0 0 92 28" fill="none" xmlns="http://www.w3.org/2000/svg">
<path d="M63.054 17.2847C63.054 14.0335 60.4155 11.3966 57.1644 11.3981C53.9132 11.3981 51.2763 14.0365 51.2778 17.2877C51.2778 20.5389 53.9147 23.1743 57.1659 23.1743C60.4171 23.1743 63.054 20.5374 63.054 17.2862V17.2847ZM91.3344 17.2847C91.3299 23.1971 86.5316 27.9863 80.6191 27.9817C76.2218 27.9786 72.2725 25.2853 70.6644 21.1928L74.7402 17.117V17.2862C74.7478 20.5328 77.3863 23.1575 80.6329 23.1484C83.8795 23.1392 86.5042 20.5023 86.495 17.2557C86.4874 14.0091 83.849 11.3844 80.6024 11.3935C79.0492 11.3981 77.56 12.0154 76.4626 13.1144L64.7779 24.8052C60.635 29.0136 53.8644 29.0669 49.6545 24.9241C47.6075 22.9091 46.4582 20.1563 46.4628 17.2847V2.26495C46.5451 0.934302 47.6898 -0.0762592 49.0189 0.00452475C50.2352 0.0792118 51.2031 1.04862 51.2793 2.26495V8.27192C56.2178 5.02075 62.8573 6.38951 66.1085 11.328C66.8539 12.4605 67.3767 13.7241 67.651 15.0517L73.059 9.64525C77.2384 5.4643 84.0166 5.46278 88.1976 9.6422C90.2233 11.6679 91.3543 14.4207 91.3344 17.2847ZM44.8593 17.2847C44.87 23.191 40.0915 27.9893 34.1836 28C29.7695 28.0091 25.8034 25.3036 24.1999 21.1928L28.2757 17.117V17.2862C28.2833 20.5328 30.9218 23.1575 34.1684 23.1484C37.415 23.1407 40.0397 20.5023 40.0305 17.2557C40.0229 14.0091 37.3845 11.3844 34.1379 11.3935C32.5847 11.3981 31.0955 12.0154 29.9981 13.1144L18.2722 24.8509C14.0913 29.0303 7.31304 29.0288 3.13362 24.8479C-1.04581 20.6669 -1.04428 13.8887 3.13667 9.70927C7.31609 5.53137 14.0928 5.53137 18.2722 9.70927C19.2127 10.6543 19.2081 12.1846 18.2616 13.1235C17.3165 14.064 15.7862 14.0594 14.8473 13.1129C12.5442 10.8174 8.81593 10.8235 6.52045 13.1266C4.22496 15.4297 4.23106 19.1579 6.53416 21.4534C8.8327 23.7443 12.5503 23.7443 14.8473 21.4534L26.593 9.67726C30.7648 5.49631 37.5369 5.48869 41.7194 9.66049C43.7436 11.6801 44.8745 14.4267 44.8593 17.2877V17.2831V17.2847Z" fill="#f73b20"/>
</svg>
