<svg width="148" height="44" viewBox="0 0 148 44" fill="none" xmlns="http://www.w3.org/2000/svg">
<path d="M35.9264 21.2462C35.9386 20.2915 36.1923 19.3554 36.6636 18.5249C37.1349 17.6945 37.8086 16.9968 38.622 16.4967C38.1053 15.7587 37.4236 15.1514 36.631 14.723C35.8385 14.2945 34.9571 14.0568 34.0566 14.0286C32.1357 13.827 30.2736 15.178 29.2947 15.178C28.2969 15.178 26.7899 14.0487 25.167 14.082C24.1173 14.1159 23.0942 14.4212 22.1976 14.968C21.3009 15.5149 20.5612 16.2847 20.0505 17.2024C17.8383 21.0326 19.4884 26.6617 21.6075 29.7578C22.6678 31.2738 23.907 32.9673 25.5284 32.9072C27.115 32.8414 27.7075 31.8954 29.6228 31.8954C31.5202 31.8954 32.0762 32.9072 33.7304 32.869C35.433 32.8414 36.5056 31.3462 37.5287 29.8158C38.2905 28.7356 38.8767 27.5417 39.2656 26.2784C38.2765 25.86 37.4324 25.1598 36.8386 24.2649C36.2448 23.37 35.9275 22.3201 35.9264 21.2462Z" fill="white"/>
<path d="M32.8013 11.9929C33.7296 10.8785 34.1869 9.44613 34.0762 8C32.658 8.14894 31.3479 8.82676 30.4071 9.89838C29.9471 10.4219 29.5948 11.0309 29.3703 11.6907C29.1458 12.3505 29.0536 13.048 29.0988 13.7435C29.8082 13.7507 30.51 13.597 31.1513 13.2938C31.7926 12.9906 32.3568 12.5457 32.8013 11.9929Z" fill="white"/>
<path d="M54.9619 29.2221H49.7552L48.5048 32.9142H46.2994L51.2312 19.2544H53.5225L58.4542 32.9142H56.2112L54.9619 29.2221ZM50.2945 27.5184H54.4216L52.3871 21.5264H52.3301L50.2945 27.5184Z" fill="white"/>
<path d="M69.1048 27.9348C69.1048 31.0296 67.4483 33.018 64.9486 33.018C64.3154 33.0512 63.6857 32.9053 63.1315 32.5971C62.5773 32.289 62.1211 31.831 61.8152 31.2756H61.7679V36.2084H59.7236V22.9548H61.7023V24.6112H61.7399C62.06 24.0585 62.5239 23.6029 63.0823 23.2928C63.6407 22.9829 64.2726 22.83 64.911 22.8506C67.4387 22.8506 69.1048 24.8486 69.1048 27.9348ZM67.0036 27.9348C67.0036 25.9185 65.9616 24.593 64.3718 24.593C62.8099 24.593 61.7593 25.9465 61.7593 27.9348C61.7593 29.9415 62.8099 31.2853 64.3718 31.2853C65.9617 31.2853 67.0036 29.9694 67.0036 27.9348Z" fill="white"/>
<path d="M80.0666 27.9348C80.0666 31.0296 78.4096 33.018 75.9099 33.018C75.2767 33.0512 74.6469 32.9053 74.0928 32.5972C73.5386 32.289 73.0824 31.831 72.7764 31.2756H72.7291V36.2084H70.6849V22.9548H72.6636V24.6112H72.7012C73.0213 24.0585 73.4852 23.6029 74.0435 23.2928C74.602 22.9829 75.234 22.83 75.8723 22.8506C78.4 22.8506 80.0666 24.8486 80.0666 27.9348ZM77.9649 27.9348C77.9649 25.9185 76.9229 24.593 75.3331 24.593C73.7712 24.593 72.7206 25.9465 72.7206 27.9348C72.7206 29.9415 73.7712 31.2853 75.3331 31.2853C76.9229 31.2853 77.9649 29.9694 77.9649 27.9348Z" fill="white"/>
<path d="M87.31 29.1082C87.461 30.4628 88.7774 31.3522 90.5755 31.3522C92.2981 31.3522 93.5382 30.4628 93.5382 29.2413C93.5382 28.1811 92.7902 27.5463 91.0199 27.1112L89.2496 26.6847C86.7416 26.0789 85.5771 24.9059 85.5771 23.0024C85.5771 20.6455 87.6312 19.0267 90.5462 19.0267C93.434 19.0267 95.4126 20.6455 95.4793 23.0024H93.4157C93.2918 21.6392 92.1654 20.8163 90.5183 20.8163C88.8712 20.8163 87.7448 21.6489 87.7448 22.8605C87.7448 23.8263 88.4642 24.3945 90.225 24.8295L91.7298 25.1991C94.5326 25.8619 95.6964 26.9877 95.6964 28.9857C95.6964 31.5412 93.6614 33.1418 90.4237 33.1418C87.3943 33.1418 85.349 31.5788 85.217 29.1081L87.31 29.1082Z" fill="white"/>
<path d="M100.11 20.5983V22.9551H102.004V24.5739H100.11V30.0642C100.11 30.9172 100.489 31.3146 101.322 31.3146C101.546 31.3107 101.771 31.2949 101.994 31.2673V32.8765C101.62 32.9465 101.24 32.9781 100.859 32.971C98.8424 32.971 98.0562 32.2137 98.0562 30.2823V24.5739H96.6079V22.9551H98.0562V20.5983H100.11Z" fill="white"/>
<path d="M103.101 27.9351C103.101 24.8017 104.946 22.8326 107.824 22.8326C110.711 22.8326 112.548 24.8016 112.548 27.9351C112.548 31.0773 110.721 33.0377 107.824 33.0377C104.928 33.0377 103.101 31.0773 103.101 27.9351ZM110.466 27.9351C110.466 25.7857 109.48 24.517 107.824 24.517C106.168 24.517 105.183 25.7954 105.183 27.9351C105.183 30.0933 106.168 31.3523 107.824 31.3523C109.48 31.3523 110.466 30.0933 110.466 27.9351Z" fill="white"/>
<path d="M114.233 22.9547H116.183V24.6498H116.23C116.362 24.1203 116.672 23.6525 117.108 23.3248C117.545 22.9972 118.081 22.8297 118.625 22.8505C118.861 22.8496 119.096 22.8752 119.326 22.9268V24.8388C119.029 24.748 118.719 24.7063 118.408 24.7153C118.111 24.7033 117.814 24.7556 117.539 24.8688C117.264 24.982 117.018 25.1533 116.816 25.371C116.613 25.5886 116.46 25.8475 116.368 26.1299C116.274 26.4122 116.244 26.7113 116.277 27.0066V32.9137H114.233V22.9547Z" fill="white"/>
<path d="M128.752 29.9891C128.477 31.797 126.716 33.0377 124.464 33.0377C121.566 33.0377 119.768 31.0965 119.768 27.9824C119.768 24.8586 121.576 22.8326 124.378 22.8326C127.133 22.8326 128.866 24.7254 128.866 27.745V28.4454H121.832V28.569C121.799 28.9355 121.845 29.3047 121.967 29.6521C122.088 29.9996 122.281 30.3172 122.535 30.584C122.788 30.8508 123.095 31.0606 123.436 31.1996C123.776 31.3385 124.143 31.4034 124.511 31.3898C124.994 31.4351 125.479 31.3232 125.893 31.0708C126.307 30.8185 126.629 30.439 126.811 29.9891H128.752ZM121.841 27.0167H126.821C126.839 26.6872 126.789 26.3574 126.674 26.0481C126.559 25.7387 126.381 25.4565 126.151 25.2192C125.922 24.9818 125.646 24.7944 125.341 24.6688C125.036 24.5432 124.708 24.482 124.378 24.4891C124.045 24.4871 123.715 24.551 123.407 24.6772C123.099 24.8034 122.819 24.9894 122.583 25.2245C122.347 25.4594 122.16 25.7388 122.033 26.0464C121.906 26.354 121.84 26.6838 121.841 27.0167Z" fill="white"/>
<path d="M50.0388 8.97283C50.4673 8.94203 50.8974 9.00678 51.298 9.16239C51.6984 9.31793 52.0595 9.56045 52.3549 9.87248C52.6504 10.1844 52.8729 10.5581 53.0064 10.9665C53.14 11.3749 53.1812 11.8078 53.1271 12.2341C53.1271 14.331 51.9938 15.5363 50.0388 15.5363H47.668V8.97283H50.0388ZM48.6874 14.6081H49.9249C50.2312 14.6264 50.5376 14.5762 50.822 14.4611C51.1064 14.346 51.3615 14.169 51.5689 13.9428C51.7762 13.7168 51.9305 13.4473 52.0206 13.1539C52.1106 12.8607 52.1342 12.551 52.0895 12.2475C52.131 11.9452 52.105 11.6375 52.0136 11.3463C51.9222 11.0552 51.7674 10.7879 51.5606 10.5636C51.3537 10.3392 51.0998 10.1635 50.817 10.0488C50.5342 9.93408 50.2296 9.88341 49.9249 9.90035H48.6874V14.6081Z" fill="white"/>
<path d="M54.2791 13.0576C54.248 12.732 54.2852 12.4036 54.3885 12.0933C54.4916 11.783 54.6586 11.4978 54.8786 11.2558C55.0985 11.0138 55.3666 10.8205 55.6656 10.6882C55.9646 10.5559 56.288 10.4875 56.615 10.4875C56.942 10.4875 57.2654 10.5559 57.5645 10.6882C57.8634 10.8205 58.1315 11.0138 58.3515 11.2558C58.5714 11.4978 58.7384 11.783 58.8416 12.0933C58.9448 12.4036 58.9821 12.732 58.9509 13.0576C58.9827 13.3834 58.9458 13.7123 58.8429 14.023C58.7399 14.3338 58.5731 14.6196 58.3531 14.8621C58.1331 15.1045 57.8648 15.2983 57.5655 15.4308C57.2661 15.5634 56.9424 15.6319 56.615 15.6319C56.2877 15.6319 55.9639 15.5634 55.6645 15.4308C55.3652 15.2983 55.0969 15.1045 54.8769 14.8621C54.6569 14.6196 54.4901 14.3338 54.3871 14.023C54.2842 13.7123 54.2474 13.3834 54.2791 13.0576ZM57.9454 13.0576C57.9454 11.9839 57.4631 11.356 56.6166 11.356C55.7669 11.356 55.2889 11.9839 55.2889 13.0576C55.2889 14.1398 55.767 14.7629 56.6166 14.7629C57.4631 14.7629 57.9454 14.1355 57.9454 13.0576Z" fill="white"/>
<path d="M65.1606 15.5363H64.1466L63.1228 11.8883H63.0455L62.0261 15.5363H61.0217L59.6564 10.5832H60.6478L61.5352 14.3628H61.6082L62.6266 10.5832H63.5644L64.5827 14.3628H64.66L65.5431 10.5832H66.5206L65.1606 15.5363Z" fill="white"/>
<path d="M67.6686 10.5827H68.6096V11.3695H68.6826C68.8066 11.0869 69.0156 10.85 69.2805 10.6918C69.5455 10.5336 69.8532 10.462 70.1607 10.487C70.4018 10.4689 70.6438 10.5053 70.8688 10.5934C71.0938 10.6815 71.2962 10.8191 71.4609 10.996C71.6255 11.1729 71.7483 11.3846 71.82 11.6155C71.8917 11.8463 71.9105 12.0902 71.8752 12.3293V15.5358H70.8977V12.5748C70.8977 11.7788 70.5518 11.3829 69.8288 11.3829C69.6652 11.3753 69.5018 11.4032 69.35 11.4646C69.1981 11.526 69.0613 11.6195 68.949 11.7388C68.8366 11.858 68.7514 12 68.6991 12.1553C68.6468 12.3105 68.6287 12.4752 68.6461 12.6382V15.5359H67.6686V10.5827Z" fill="white"/>
<path d="M73.4327 8.64951H74.4103V15.5363H73.4327V8.64951Z" fill="white"/>
<path d="M75.7698 13.0576C75.7387 12.7321 75.776 12.4036 75.8792 12.0934C75.9825 11.7831 76.1495 11.4978 76.3694 11.2558C76.5894 11.0138 76.8575 10.8205 77.1565 10.6882C77.4556 10.5559 77.779 10.4875 78.106 10.4875C78.433 10.4875 78.7564 10.5559 79.0554 10.6882C79.3545 10.8205 79.6226 11.0138 79.8426 11.2558C80.0625 11.4978 80.2295 11.7831 80.3328 12.0934C80.436 12.4036 80.4733 12.7321 80.4421 13.0576C80.4738 13.3835 80.437 13.7124 80.334 14.0231C80.231 14.3339 80.0641 14.6197 79.8441 14.8621C79.6241 15.1046 79.3558 15.2983 79.0565 15.4309C78.7571 15.5635 78.4333 15.632 78.106 15.632C77.7786 15.632 77.4548 15.5635 77.1554 15.4309C76.8561 15.2983 76.5878 15.1046 76.3678 14.8621C76.1478 14.6197 75.9809 14.3339 75.878 14.0231C75.7749 13.7124 75.7381 13.3835 75.7698 13.0576ZM79.4361 13.0576C79.4361 11.984 78.9538 11.3561 78.1073 11.3561C77.2576 11.3561 76.7796 11.984 76.7796 13.0576C76.7796 14.1399 77.2577 14.7629 78.1073 14.7629C78.9538 14.7629 79.4361 14.1356 79.4361 13.0576Z" fill="white"/>
<path d="M81.4701 14.1356C81.4701 13.244 82.1341 12.7299 83.3125 12.6569L84.6538 12.5796V12.152C84.6538 11.6289 84.3084 11.3335 83.6403 11.3335C83.094 11.3335 82.7163 11.5338 82.6078 11.884H81.6613C81.7612 11.0332 82.5616 10.4875 83.6851 10.4875C84.9266 10.4875 85.6276 11.1057 85.6276 12.152V15.5363H84.6861V14.8402H84.609C84.4521 15.0899 84.2314 15.2935 83.9703 15.4301C83.7085 15.5667 83.4159 15.6316 83.1211 15.6179C82.9128 15.6396 82.7031 15.6174 82.5044 15.5528C82.3057 15.4883 82.1223 15.3827 81.9669 15.243C81.8114 15.1034 81.6866 14.9327 81.6011 14.742C81.5155 14.5511 81.4709 14.3446 81.4701 14.1356ZM84.6538 13.7123V13.2982L83.4445 13.3755C82.7625 13.4212 82.4531 13.6532 82.4531 14.0899C82.4531 14.5357 82.8395 14.7951 83.3712 14.7951C83.5274 14.8109 83.6843 14.7951 83.8339 14.7488C83.9835 14.7026 84.1228 14.6266 84.2424 14.5256C84.3619 14.4246 84.4602 14.3005 84.5306 14.1608C84.6017 14.0211 84.6435 13.8686 84.6538 13.7123Z" fill="white"/>
<path d="M86.9117 13.0576C86.9117 11.4925 87.7169 10.501 88.968 10.501C89.2775 10.4867 89.5847 10.5609 89.8539 10.7147C90.123 10.8686 90.3423 11.0959 90.4867 11.37H90.5601V8.64951H91.5376V15.5363H90.6011V14.7538H90.5234C90.3679 15.026 90.1406 15.2505 89.8663 15.4028C89.5921 15.5551 89.2819 15.6295 88.968 15.6179C87.7081 15.618 86.9117 14.6265 86.9117 13.0576ZM87.9215 13.0576C87.9215 14.1082 88.4173 14.7404 89.2452 14.7404C90.0695 14.7404 90.5784 14.0991 90.5784 13.0619C90.5784 12.0296 90.0636 11.3791 89.2452 11.3791C88.4224 11.3791 87.9215 12.0156 87.9215 13.0576Z" fill="white"/>
<path d="M95.5827 13.0576C95.5519 12.732 95.5886 12.4036 95.692 12.0933C95.7954 11.783 95.9626 11.4978 96.1826 11.2558C96.4019 11.0138 96.6703 10.8205 96.9695 10.6882C97.2687 10.5559 97.5921 10.4875 97.9184 10.4875C98.2455 10.4875 98.5689 10.5559 98.8681 10.6882C99.1673 10.8205 99.4349 11.0138 99.6549 11.2558C99.8749 11.4978 100.042 11.783 100.146 12.0933C100.248 12.4036 100.286 12.732 100.255 13.0576C100.286 13.3834 100.25 13.7123 100.146 14.023C100.044 14.3338 99.8771 14.6196 99.6571 14.8621C99.4371 15.1045 99.1687 15.2983 98.8695 15.4308C98.5696 15.5634 98.2462 15.6319 97.9184 15.6319C97.5913 15.6319 97.2679 15.5634 96.968 15.4308C96.6688 15.2983 96.4004 15.1045 96.1804 14.8621C95.9604 14.6196 95.7939 14.3338 95.6905 14.023C95.5879 13.7123 95.5512 13.3834 95.5827 13.0576ZM99.2494 13.0576C99.2494 11.9839 98.7669 11.356 97.9206 11.356C97.0707 11.356 96.5925 11.9839 96.5925 13.0576C96.5925 14.1398 97.0707 14.7629 97.9206 14.7629C98.7669 14.7629 99.2494 14.1355 99.2494 13.0576Z" fill="white"/>
<path d="M101.566 10.5827H102.507V11.3695H102.58C102.704 11.0869 102.913 10.85 103.178 10.6918C103.443 10.5336 103.751 10.462 104.058 10.487C104.299 10.4689 104.541 10.5053 104.766 10.5934C104.991 10.6815 105.194 10.8191 105.358 10.996C105.523 11.1729 105.645 11.3846 105.717 11.6155C105.789 11.8463 105.808 12.0902 105.772 12.3293V15.5358H104.795V12.5748C104.795 11.7788 104.449 11.3829 103.726 11.3829C103.563 11.3753 103.399 11.4032 103.247 11.4646C103.096 11.526 102.959 11.6195 102.846 11.7388C102.734 11.858 102.649 12 102.596 12.1553C102.544 12.3105 102.526 12.4752 102.543 12.6382V15.5359H101.566V10.5827Z" fill="white"/>
<path d="M111.296 9.34991V10.6057H112.369V11.4291H111.296V13.9761C111.296 14.4949 111.509 14.7221 111.996 14.7221C112.121 14.7217 112.245 14.7142 112.369 14.6995V15.5138C112.193 15.5452 112.015 15.5619 111.837 15.5637C110.75 15.5637 110.317 15.1813 110.317 14.2264V11.4291H109.531V10.6057H110.317V9.34991H111.296Z" fill="white"/>
<path d="M113.706 8.64951H114.674V11.3791H114.751C114.882 11.0939 115.096 10.8556 115.367 10.6968C115.636 10.5381 115.95 10.4665 116.262 10.4919C116.502 10.4788 116.742 10.5188 116.964 10.609C117.186 10.6993 117.386 10.8376 117.549 11.0139C117.712 11.1903 117.834 11.4005 117.906 11.6294C117.979 11.8584 118 12.1004 117.968 12.3384V15.5363H116.989V12.5796C116.989 11.7884 116.621 11.3877 115.93 11.3877C115.762 11.3739 115.593 11.397 115.435 11.4554C115.276 11.5138 115.133 11.6059 115.015 11.7255C114.896 11.8452 114.804 11.9893 114.747 12.1479C114.69 12.3064 114.668 12.4755 114.683 12.6435V15.5363H113.706V8.64951Z" fill="white"/>
<path d="M123.667 14.199C123.534 14.6517 123.247 15.0433 122.855 15.3052C122.462 15.5673 121.99 15.6829 121.521 15.632C121.194 15.6407 120.87 15.5781 120.57 15.4488C120.271 15.3195 120.003 15.1266 119.785 14.8833C119.567 14.6401 119.405 14.3524 119.31 14.0402C119.214 13.728 119.188 13.3988 119.233 13.0754C119.189 12.751 119.216 12.4211 119.311 12.108C119.407 11.7948 119.568 11.5058 119.784 11.2604C120.001 11.015 120.267 10.819 120.567 10.6857C120.865 10.5524 121.189 10.4848 121.516 10.4876C122.895 10.4876 123.727 11.4292 123.727 12.9846V13.3257H120.229V13.3805C120.213 13.5622 120.236 13.7452 120.296 13.9176C120.355 14.09 120.45 14.2481 120.575 14.3817C120.699 14.5154 120.849 14.6215 121.017 14.6934C121.185 14.7654 121.365 14.8015 121.548 14.7995C121.782 14.8275 122.019 14.7854 122.228 14.6785C122.438 14.5716 122.611 14.4047 122.726 14.199H123.667ZM120.229 12.6028H122.731C122.742 12.4365 122.72 12.2695 122.664 12.1125C122.608 11.9555 122.52 11.812 122.405 11.6911C122.29 11.5703 122.151 11.4748 121.997 11.4109C121.843 11.3468 121.678 11.3158 121.511 11.3196C121.343 11.3174 121.175 11.3492 121.018 11.4129C120.861 11.4767 120.719 11.5711 120.6 11.6907C120.48 11.8103 120.386 11.9526 120.322 12.1092C120.258 12.2659 120.226 12.4336 120.229 12.6028Z" fill="white"/>
</svg>
