<svg width="148" height="44" viewBox="0 0 148 44" fill="none" xmlns="http://www.w3.org/2000/svg">
<path d="M74.954 23.4267C74.0307 23.4311 73.1287 23.7089 72.3628 24.2253C71.5969 24.7416 71.0011 25.4732 70.6506 26.3279C70.3001 27.1825 70.2108 28.1217 70.3936 29.0272C70.5765 29.9326 71.0234 30.7635 71.6781 31.4152C72.3328 32.0668 73.1658 32.5098 74.0718 32.6884C74.9782 32.8671 75.9176 32.7732 76.7704 32.4187C77.6233 32.0642 78.3522 31.465 78.8648 30.6967C79.3774 29.9284 79.651 29.0254 79.651 28.1017C79.6598 27.4835 79.5446 26.8697 79.3114 26.297C79.0782 25.7243 78.7321 25.2044 78.2943 24.7681C77.8558 24.332 77.3344 23.9884 76.7602 23.758C76.1867 23.5275 75.5722 23.4148 74.954 23.4267ZM74.954 30.9397C74.3864 30.9795 73.8195 30.8473 73.3271 30.5607C72.8351 30.2739 72.4407 29.8458 72.1953 29.332C71.9498 28.8182 71.8646 28.2424 71.9507 27.6795C72.0368 27.1166 72.2903 26.5926 72.6781 26.1756C73.066 25.7587 73.5702 25.4681 74.1253 25.3416C74.6804 25.215 75.2612 25.2584 75.7914 25.4662C76.3216 25.674 76.777 26.0364 77.0982 26.5064C77.4202 26.9764 77.5925 27.5323 77.594 28.1017C77.6116 28.4625 77.5573 28.8233 77.4334 29.1626C77.3094 29.502 77.1188 29.813 76.8724 30.0775C76.6267 30.342 76.3297 30.5546 76.0004 30.7026C75.6712 30.8508 75.3155 30.9314 74.954 30.9397ZM64.7131 23.4267C63.7889 23.4289 62.8861 23.705 62.1188 24.22C61.3514 24.7349 60.7539 25.4658 60.4018 26.3203C60.0496 27.1747 59.9586 28.1143 60.1403 29.0205C60.3218 29.9266 60.768 30.7586 61.4222 31.4113C62.0765 32.064 62.9095 32.5082 63.816 32.6877C64.7226 32.8671 65.662 32.7739 66.5156 32.4198C67.3692 32.0656 68.0988 31.4664 68.6119 30.6979C69.1251 29.9293 69.399 29.0259 69.399 28.1017C69.408 27.4835 69.2925 26.8697 69.0593 26.297C68.8262 25.7243 68.4802 25.2044 68.0419 24.7681C67.6037 24.332 67.0821 23.9884 66.5084 23.758C65.9346 23.5275 65.3203 23.4148 64.702 23.4267H64.7131ZM64.7131 30.9397C64.1447 30.9817 63.5769 30.8516 63.0836 30.5663C62.5902 30.281 62.1942 29.8539 61.947 29.3404C61.6998 28.8269 61.6129 28.251 61.6976 27.6874C61.7824 27.1238 62.0348 26.5988 62.4221 26.1808C62.8094 25.7627 63.3135 25.4709 63.869 25.3434C64.4245 25.2158 65.0054 25.2585 65.5363 25.4658C66.0671 25.6731 66.5233 26.0353 66.8453 26.5055C67.1674 26.9756 67.3405 27.5319 67.3421 28.1017C67.3598 28.4625 67.3051 28.8233 67.1811 29.1626C67.0573 29.502 66.8667 29.813 66.6206 30.0775C66.3745 30.342 66.0781 30.5546 65.7486 30.7026C65.419 30.8508 65.0632 30.9314 64.702 30.9397H64.7131ZM52.5141 24.8677V26.8477H57.2661C57.1915 27.7803 56.8039 28.6603 56.1661 29.3447C55.6907 29.8289 55.1191 30.2084 54.4882 30.4584C53.8573 30.7085 53.1811 30.8237 52.503 30.7967C51.1027 30.7967 49.7597 30.2404 48.7696 29.2503C47.7793 28.2601 47.223 26.917 47.223 25.5167C47.223 24.1164 47.7793 22.7734 48.7696 21.7832C49.7597 20.793 51.1027 20.2367 52.503 20.2367C53.8426 20.2149 55.1362 20.7252 56.1 21.6557L57.497 20.2587C56.8464 19.5998 56.0701 19.0783 55.2142 18.725C54.3582 18.3716 53.44 18.1937 52.5141 18.2017C51.5361 18.1637 50.5606 18.3234 49.646 18.6714C48.7313 19.0194 47.8962 19.5484 47.1909 20.2268C46.4856 20.9052 45.9244 21.7191 45.5411 22.6195C45.1579 23.52 44.9603 24.4886 44.9603 25.4672C44.9603 26.4459 45.1579 27.4145 45.5411 28.3149C45.9244 29.2154 46.4856 30.0292 47.1909 30.7076C47.8962 31.386 48.7313 31.9151 49.646 32.263C50.5606 32.6111 51.5361 32.7708 52.5141 32.7327C53.4556 32.7753 54.3953 32.6157 55.27 32.2646C56.1448 31.9136 56.9341 31.3794 57.585 30.6977C58.7375 29.4316 59.3528 27.767 59.301 26.0557C59.3046 25.6388 59.2678 25.2225 59.1911 24.8127L52.5141 24.8677ZM102.355 26.4077C102.068 25.5637 101.531 24.8268 100.816 24.2945C100.101 23.7622 99.242 23.4595 98.351 23.4267C97.7496 23.4256 97.1542 23.5478 96.6012 23.7859C96.0483 24.024 95.5511 24.373 95.1382 24.8111C94.7261 25.2493 94.4078 25.7674 94.204 26.3334C93.9994 26.8994 93.9136 27.5012 93.951 28.1017C93.9378 28.7166 94.0485 29.3277 94.2766 29.8988C94.5046 30.4699 94.8456 30.9891 95.279 31.4255C95.7124 31.8618 96.2287 32.2064 96.7985 32.4386C97.3676 32.6707 97.9784 32.7857 98.593 32.7767C99.3622 32.7808 100.121 32.5941 100.8 32.2333C101.48 31.8723 102.059 31.3485 102.487 30.7087L100.892 29.6087C100.654 30.0056 100.317 30.3339 99.9137 30.5614C99.5111 30.7889 99.0557 30.9079 98.593 30.9067C98.1163 30.9249 97.6455 30.7993 97.2414 30.5462C96.8374 30.2931 96.5191 29.9243 96.327 29.4877L102.586 26.9027L102.355 26.4077ZM95.975 27.9697C95.953 27.6295 95.9984 27.2882 96.1099 26.9659C96.2214 26.6436 96.3952 26.3467 96.6232 26.0927C96.8506 25.8386 97.1263 25.6325 97.4343 25.4864C97.7423 25.3403 98.0767 25.2571 98.417 25.2417C98.7719 25.2183 99.1261 25.2997 99.4348 25.4757C99.7436 25.6517 99.9944 25.9146 100.155 26.2317L95.975 27.9697ZM90.893 32.5017H92.95V18.7517H90.893V32.5017ZM87.527 24.4717H87.45C87.1398 24.1251 86.7606 23.848 86.3353 23.6584C85.9107 23.4688 85.4509 23.3711 84.986 23.3717C83.784 23.43 82.6503 23.9486 81.8202 24.82C80.99 25.6913 80.5273 26.8487 80.5273 28.0522C80.5273 29.2557 80.99 30.4131 81.8202 31.2845C82.6503 32.1559 83.784 32.6744 84.986 32.7327C85.4524 32.7406 85.9144 32.6461 86.3404 32.4561C86.7658 32.266 87.1449 31.9849 87.45 31.6327H87.516V32.3037C87.516 34.0967 86.559 35.0537 85.019 35.0537C84.5064 35.0417 84.0084 34.8774 83.589 34.5815C83.1702 34.2858 82.8483 33.872 82.665 33.3927L80.872 34.1407C81.2093 34.9617 81.785 35.6631 82.5234 36.1551C83.2626 36.647 84.1316 36.907 85.019 36.9017C87.428 36.9017 89.419 35.4827 89.419 32.0287V23.7017H87.527V24.4717ZM85.173 30.9397C84.4638 30.8772 83.8031 30.5511 83.322 30.0258C82.841 29.5005 82.574 28.814 82.574 28.1017C82.574 27.3894 82.841 26.703 83.322 26.1776C83.8031 25.6523 84.4638 25.3263 85.173 25.2637C85.525 25.2818 85.8696 25.3701 86.1864 25.5233C86.504 25.6767 86.787 25.8919 87.0195 26.1563C87.2527 26.4209 87.4302 26.7292 87.5416 27.0633C87.6531 27.3974 87.6971 27.7505 87.67 28.1017C87.7 28.4545 87.6582 28.8097 87.5468 29.1458C87.436 29.4819 87.2578 29.792 87.0232 30.0573C86.7885 30.3226 86.5032 30.5376 86.1828 30.6892C85.863 30.8409 85.5162 30.9261 85.162 30.9397H85.173ZM111.991 18.7517H107.074V32.5017H109.131V27.2877H112.002C112.589 27.3298 113.177 27.2507 113.731 27.0553C114.286 26.8599 114.794 26.5524 115.224 26.1519C115.654 25.7515 115.997 25.2667 116.232 24.7278C116.466 24.189 116.587 23.6075 116.587 23.0197C116.587 22.432 116.466 21.8505 116.232 21.3116C115.997 20.7727 115.654 20.2879 115.224 19.8874C114.794 19.487 114.286 19.1796 113.731 18.9841C113.177 18.7887 112.589 18.7096 112.002 18.7517H111.991ZM111.991 25.3517H109.12V20.6657H112.035C112.66 20.6657 113.261 20.9143 113.703 21.3568C114.146 21.7993 114.395 22.3995 114.395 23.0252C114.395 23.651 114.146 24.2511 113.703 24.6936C113.261 25.1361 112.66 25.3847 112.035 25.3847L111.991 25.3517ZM124.674 23.3717C123.925 23.327 123.179 23.502 122.529 23.8752C121.878 24.2485 121.35 24.8037 121.011 25.4727L122.837 26.2317C123.017 25.8999 123.289 25.6276 123.622 25.4479C123.954 25.2682 124.331 25.1889 124.707 25.2197C124.968 25.1892 125.233 25.211 125.485 25.2839C125.738 25.3567 125.973 25.4791 126.178 25.644C126.383 25.8089 126.553 26.0128 126.678 26.244C126.804 26.4753 126.881 26.7291 126.907 26.9907V27.1337C126.246 26.7839 125.51 26.6026 124.762 26.6057C122.793 26.6057 120.802 27.7057 120.802 29.6967C120.822 30.1213 120.926 30.5376 121.109 30.9211C121.292 31.3046 121.55 31.6475 121.868 31.9295C122.186 32.2115 122.558 32.4269 122.96 32.563C123.363 32.6991 123.788 32.753 124.212 32.7217C124.73 32.7589 125.249 32.656 125.713 32.4237C126.177 32.1915 126.571 31.8384 126.852 31.4017H126.918V32.5017H128.898V27.2107C128.898 24.8017 127.072 23.4047 124.729 23.4047L124.674 23.3717ZM124.421 30.9067C123.75 30.9067 122.815 30.5657 122.815 29.7407C122.815 28.6407 123.981 28.2777 125.015 28.2777C125.668 28.2616 126.314 28.4212 126.885 28.7397C126.816 29.3353 126.534 29.8859 126.092 30.2901C125.649 30.6944 125.075 30.9251 124.476 30.9397L124.421 30.9067ZM136.114 23.7017L133.76 29.6637H133.694L131.252 23.7017H129.052L132.715 32.0397L130.625 36.6707H132.77L138.402 23.7017H136.114ZM117.623 32.5017H119.68V18.7517H117.623V32.5017Z" fill="#F73B20"/>
<path d="M52.0934 10.8346C52.1121 11.238 52.0486 11.6411 51.9068 12.0193C51.765 12.3975 51.5478 12.7429 51.2684 13.0346C50.9565 13.3586 50.5797 13.6133 50.1627 13.7819C49.7457 13.9507 49.2979 14.0296 48.8484 14.0136C48.1664 14.0082 47.5011 13.8017 46.936 13.42C46.3708 13.0382 45.9309 12.4981 45.6713 11.8673C45.4117 11.2367 45.3441 10.5434 45.4768 9.87436C45.6095 9.20534 45.9367 8.59044 46.4174 8.10658C46.7334 7.78399 47.1121 7.52974 47.5303 7.35946C47.9484 7.18918 48.397 7.10647 48.8484 7.11659C49.3134 7.11497 49.7739 7.20862 50.2014 7.39159C50.5994 7.55211 50.9538 7.80467 51.2354 8.12859L50.6524 8.71159C50.4329 8.45045 50.1556 8.24394 49.8425 8.10835C49.5294 7.97283 49.1891 7.91196 48.8484 7.93058C48.5048 7.9289 48.1644 7.99659 47.8477 8.12961C47.5309 8.26271 47.2442 8.45837 47.0048 8.70491C46.7655 8.95139 46.5784 9.24377 46.4548 9.56431C46.3312 9.88492 46.2735 10.2272 46.2854 10.5706C46.2782 11.0833 46.423 11.5867 46.7016 12.0172C46.9801 12.4478 47.3799 12.7862 47.8507 12.9897C48.3213 13.1933 48.8417 13.2529 49.3462 13.161C49.8507 13.0692 50.3167 12.83 50.6854 12.4736C51.0239 12.1068 51.2191 11.6304 51.2354 11.1316H48.8484V10.3396H52.0494C52.0788 10.5029 52.0934 10.6686 52.0934 10.8346ZM57.1314 8.08459H54.1614V10.1746H56.8674V10.9666H54.1614V13.0566H57.1314V13.8706H53.2814V7.27059H57.1314V8.08459ZM60.7394 13.8706H59.8924V8.08459H58.0444V7.27059H62.6314V8.08459H60.7394V13.8706ZM65.8654 13.8706V7.27059H66.7124V13.8706H65.8654ZM70.4744 13.8706H69.6274V8.08459H67.7794V7.27059H72.3114V8.08459H70.4744V13.8706ZM80.9021 13.0126C80.2597 13.6521 79.3892 14.011 78.4821 14.011C77.5757 14.011 76.7052 13.6521 76.0621 13.0126C75.4373 12.3509 75.0889 11.4752 75.0889 10.5651C75.0889 9.65487 75.4373 8.7792 76.0621 8.11759C76.3796 7.79829 76.7565 7.54485 77.1716 7.37193C77.5874 7.19901 78.0325 7.10999 78.4821 7.10999C78.9323 7.10999 79.3775 7.19901 79.7933 7.37193C80.2083 7.54485 80.5853 7.79829 80.9021 8.11759C81.5298 8.77795 81.8796 9.65406 81.8796 10.5651C81.8796 11.476 81.5298 12.3522 80.9021 13.0126ZM76.6891 12.4626C77.1657 12.9368 77.8103 13.203 78.4821 13.203C79.1545 13.203 79.7991 12.9368 80.2751 12.4626C80.7451 11.9445 81.0055 11.27 81.0055 10.5706C81.0055 9.87106 80.7451 9.19661 80.2751 8.67859C79.7991 8.20434 79.1545 7.93807 78.4821 7.93807C77.8103 7.93807 77.1657 8.20434 76.6891 8.67859C76.2197 9.19661 75.9594 9.87106 75.9594 10.5706C75.9594 11.27 76.2197 11.9445 76.6891 12.4626ZM83.0691 13.8706V7.27059H84.1031L87.3151 12.4076V7.27059H88.1621V13.8706H87.2821L83.9271 8.49159V13.8706H83.0691Z" fill="#F73B20"/>
<path fill-rule="evenodd" clip-rule="evenodd" d="M78.4821 7.22C78.0472 7.22 77.616 7.30617 77.2142 7.47351C76.8123 7.64071 76.4478 7.88557 76.1413 8.19409C75.5363 8.83517 75.199 9.68341 75.199 10.5651C75.199 11.4466 75.5363 12.2947 76.1413 12.9358C76.7639 13.554 77.605 13.901 78.4821 13.901C79.3599 13.901 80.2018 13.5539 80.8236 12.9357C81.4308 12.2958 81.7696 11.4473 81.7696 10.5651C81.7696 9.68275 81.4308 8.83407 80.8236 8.19423C80.5171 7.88565 80.1526 7.64071 79.7508 7.47351C79.3489 7.30617 78.9177 7.22 78.4821 7.22ZM77.1298 7.27038C77.5581 7.09189 78.0179 7 78.4821 7C78.947 7 79.4068 7.09189 79.8351 7.27038C80.2641 7.44895 80.6535 7.71053 80.9806 8.04009L80.982 8.04177C81.6288 8.7226 81.9896 9.62592 81.9896 10.5651C81.9896 11.5043 81.6288 12.4075 80.982 13.0884L80.9798 13.0906C80.3162 13.7506 79.4186 14.121 78.4821 14.121C77.5464 14.121 76.6488 13.7506 75.9851 13.0906L75.9822 13.0881C75.3383 12.4061 74.979 11.5033 74.979 10.5651C74.979 9.6268 75.3383 8.72407 75.9822 8.04207L75.9844 8.04001C76.3114 7.71045 76.7008 7.44895 77.1298 7.27038ZM48.846 7.22653C48.4096 7.21685 47.9759 7.29671 47.5717 7.46134C47.1675 7.62597 46.8014 7.87179 46.496 8.18353L46.4955 8.18411C46.03 8.65257 45.7132 9.24803 45.5847 9.89579C45.4562 10.5435 45.5217 11.2148 45.773 11.8255C46.0243 12.4362 46.4503 12.9591 46.9975 13.3288C47.5447 13.6985 48.1889 13.8984 48.8493 13.9036H48.8523C49.2864 13.9191 49.7189 13.8429 50.1215 13.68C50.5241 13.5171 50.8879 13.2712 51.189 12.9584C51.4581 12.6775 51.6672 12.3448 51.8038 11.9807C51.9404 11.6164 52.0016 11.2283 51.9835 10.8397L52.0935 10.8346L51.9835 10.8345C51.9835 10.7057 51.9742 10.5771 51.9558 10.4496H48.9585V11.0216H51.3491L51.3454 11.1352C51.3282 11.6604 51.1227 12.1619 50.7663 12.5482L50.762 12.5528C50.3777 12.9243 49.8918 13.1735 49.366 13.2693C48.84 13.365 48.2976 13.3029 47.807 13.0907C47.3164 12.8785 46.8996 12.5258 46.6092 12.077C46.3193 11.6289 46.1684 11.1053 46.1754 10.5717C46.1634 10.2144 46.2236 9.85831 46.3522 9.52479C46.4811 9.19039 46.6763 8.88547 46.926 8.62829C47.1756 8.37111 47.4746 8.16703 47.8051 8.02821C48.1345 7.8899 48.4884 7.81928 48.8457 7.82053C49.2023 7.80161 49.5585 7.86555 49.8862 8.00745C50.1783 8.13388 50.4407 8.31912 50.6572 8.55122L51.0837 8.12479C50.8255 7.8503 50.5105 7.63485 50.1603 7.49361L50.1581 7.49273C49.7444 7.31563 49.2988 7.22506 48.8488 7.2266L48.846 7.22653ZM52.2035 10.832C52.2225 11.2495 52.1566 11.6666 52.0098 12.0579C51.8628 12.4501 51.6375 12.8082 51.3479 13.1106C51.0252 13.4459 50.6353 13.7095 50.204 13.8839C49.7732 14.0583 49.3105 14.1399 48.846 14.1235C48.1429 14.1177 47.4571 13.9047 46.8744 13.5111C46.2913 13.1172 45.8374 12.56 45.5696 11.9092C45.3018 11.2585 45.232 10.5432 45.3689 9.85296C45.5058 9.16282 45.8433 8.52849 46.3391 8.02931C46.6655 7.69615 47.0568 7.43347 47.4888 7.25762C47.9204 7.08184 48.3835 6.99641 48.8495 7.0066C49.3286 7.00513 49.803 7.10164 50.2436 7.28996C50.6574 7.45709 51.0257 7.71969 51.3185 8.05637L51.3857 8.13381L50.6454 8.87418L50.5682 8.78237C50.3596 8.53428 50.0962 8.33811 49.7988 8.20934C49.5013 8.08057 49.1781 8.02271 48.8544 8.04038L48.8479 8.04075C48.5191 8.03913 48.1934 8.10374 47.8903 8.23105C47.5871 8.35843 47.3128 8.54565 47.0838 8.78156C46.8547 9.0174 46.6757 9.29717 46.5575 9.60392C46.4392 9.91067 46.384 10.2382 46.3954 10.5668L46.3955 10.5721C46.3886 11.0631 46.5272 11.5452 46.794 11.9575C47.0607 12.3698 47.4436 12.6939 47.8943 12.8888C48.345 13.0837 48.8434 13.1408 49.3265 13.0529C49.8086 12.9651 50.254 12.7368 50.6067 12.3967C50.9003 12.0776 51.0795 11.6713 51.1185 11.2416H48.7385V10.2296H52.1414L52.1577 10.3201C52.1881 10.4891 52.2033 10.6604 52.2035 10.832ZM53.1715 7.1606H57.2415V8.1946H54.2715V10.0646H56.9775V11.0766H54.2715V12.9466H57.2415V13.9806H53.1715V7.1606ZM53.3915 7.3806V13.7606H57.0215V13.1666H54.0515V10.8566H56.7575V10.2846H54.0515V7.9746H57.0215V7.3806H53.3915ZM57.9345 7.1606H62.7415V8.1946H60.8495V13.9806H59.7825V8.1946H57.9345V7.1606ZM58.1545 7.3806V7.9746H60.0025V13.7606H60.6295V7.9746H62.5215V7.3806H58.1545ZM65.7555 7.1606H66.8225V13.9806H65.7555V7.1606ZM65.9755 7.3806V13.7606H66.6025V7.3806H65.9755ZM67.6695 7.1606H72.4215V8.1946H70.5845V13.9806H69.5175V8.1946H67.6695V7.1606ZM67.8895 7.3806V7.9746H69.7375V13.7606H70.3645V7.9746H72.2015V7.3806H67.8895ZM82.9591 7.1606H84.1647L87.2051 12.0241V7.1606H88.2721V13.9806H87.2212L84.0371 8.87579V13.9806H82.9591V7.1606ZM83.1791 7.3806V13.7606H83.8171V8.10733L87.3437 13.7606H88.0521V7.3806H87.4251V12.791L84.0422 7.3806H83.1791ZM76.6121 8.60065C77.1086 8.10587 77.781 7.82808 78.4821 7.82808C79.1839 7.82808 79.8564 8.10587 80.3528 8.60065L80.3572 8.60461C80.8456 9.14287 81.1155 9.84379 81.1155 10.5706C81.1155 11.2974 80.8449 11.9982 80.3572 12.5364L80.3528 12.5406C79.8564 13.0354 79.1839 13.313 78.4821 13.313C77.781 13.313 77.1086 13.0353 76.6121 12.5405L76.6891 12.4626L76.6077 12.5364C76.1193 11.9982 75.8494 11.2974 75.8494 10.5706C75.8494 9.84379 76.1193 9.14295 76.6077 8.60468L76.6121 8.60065ZM76.769 12.3866C77.2244 12.8391 77.8404 13.093 78.4821 13.093C79.1245 13.093 79.7405 12.8391 80.1959 12.3866C80.6462 11.8891 80.8955 11.2418 80.8955 10.5706C80.8955 9.89931 80.6462 9.25214 80.1959 8.75457C79.7405 8.30203 79.1245 8.04808 78.4821 8.04808C77.8404 8.04808 77.2244 8.30211 76.769 8.75457C76.3188 9.25214 76.0694 9.89931 76.0694 10.5706C76.0694 11.2418 76.3188 11.8891 76.769 12.3866Z" fill="#F73B20"/>
<path d="M11.5451 35.4705L25.0208 21.4936L11.5564 7.54178C11.1968 7.75899 10.9742 8.26191 10.9742 8.92022V34.1054C10.9791 34.7637 11.1936 35.2299 11.5451 35.4705Z" fill="#F73B20"/>
<path d="M25.5032 21.1074L29.5172 16.9436L13.171 7.64681C12.8958 7.48093 12.5831 7.39329 12.2646 7.39285L25.5016 21.1057L25.5032 21.1074Z" fill="#F73B20"/>
<path d="M25.5035 21.8808L12.2246 35.6538C12.5579 35.6596 12.8862 35.5693 13.1729 35.3932L29.5514 26.0714L25.5035 21.8808Z" fill="#F73B20"/>
<path d="M35.439 20.3171L29.9995 17.2176L25.8759 21.4951L30.0301 25.7992L35.4374 22.7081C36.5873 22.0514 36.5873 20.9704 35.439 20.3171Z" fill="#F73B20"/>
</svg>